<svg xmlns="http://www.w3.org/2000/svg" id="database" viewBox="0 0 768 1026" width="64" height="64"><path d="M384 961C171.97 961 0 903.625 0 833V705c0-11.125 5.562-21.688 13.562-32C56.375 728.125 205.25 769 384 769s327.625-40.875 370.438-96c8 10.312 13.562 20.875 13.562 32v128c0 70.625-172 128-384 128zm0-256C171.97 705 0 647.625 0 577V449c0-6.78 2.562-13.375 6-19.906C7.938 425 10.5 420.97 13.562 417 56.375 472.094 205.25 513 384 513s327.625-40.906 370.438-96c3.062 3.97 5.625 8 7.562 12.094 3.438 6.53 6 13.125 6 19.906v128c0 70.625-172 128-384 128zm0-256C171.97 449 0 391.656 0 321v-64-64C0 122.344 171.97 65 384 65c212 0 384 57.344 384 128v128c0 70.656-172 128-384 128zm0-320c-141.375 0-256 28.594-256 64s114.625 64 256 64 256-28.594 256-64-114.625-64-256-64z"/></svg>